<svg xmlns="http://www.w3.org/2000/svg" width="48" height="45" viewBox="0 0 48 45"><path d="M6 0h6v3H6V0zm30 0h6v3h-6V0zM12 3v3h3V3h-3zm21 0v3h3V3h-3zM15 6v3h3V6h-3zm15 0v3h3V6h-3zM18 9h12v3H18V9zM3 3h3v12H3V3zm39 0h3v12h-3V3z"/><path fill="#FFF" d="M12 18v3h3v-3h-3z"/><path d="M15 18v3h-3v3h6v-6h-3zm12 3v3h3v-3h-3zm9-3v3h-3v3h6v-6h-3zM0 15h3v15H0V15z"/><path fill="#FFB8BC" d="M6 24h6v6H6v-6zm33 0h6v6h-6v-6z"/><path d="M45 15h3v15h-3V15zM3 30v3h3v-3H3zm30-3v3h-6v-3h-3v3h-6v-3h-3v6h21v-6h-3zm9 3v3h3v-3h-3zM6 33v3h3v-3H6z"/><path fill="#8B8F89" d="M42 15V3h-6v3h-3v3h-3v3H18V9h-3V6h-3V3H6v12H3v15h3v-6h6v-6h6v6h-6v6H6v3h3v3h30v-3h3v-3h-3v-6h-6v-6h6v6h6v-9h-3zm-15 6h3v3h-3v-3zm9 6v6H15v-6h3v3h6v-3h3v3h6v-3h3z"/><path d="M39 33v3h3v-3h-3z"/><path fill="#8B8F89" d="M12 39h6v3h-6v-3zm15 0h6v3h-6v-3z"/><path d="M9 36v6h3v-3h6v3h3v-3h3v3h3v-3h6v3h3v-3h3v-3H9zm3 6h6v3h-6v-3zm15 0h6v3h-6v-3z"/><path fill="#FFF" d="M33 18v3h3v-3h-3z"/></svg>